<svg width="132" height="81" viewBox="0 0 132 81" fill="none" xmlns="http://www.w3.org/2000/svg">
<path fill-rule="evenodd" clip-rule="evenodd" d="M114.426 80.7681C119.601 78.4449 124.74 76.1921 129.844 73.7193C130.944 73.1913 131.401 71.8802 130.873 70.789C130.345 69.689 129.025 69.2313 127.934 69.7593C122.857 72.2145 117.761 74.4496 112.622 76.7552C111.513 77.2568 111.02 78.5593 111.513 79.6593C112.015 80.7681 113.317 81.2697 114.426 80.7681Z" fill="black"/>
<path fill-rule="evenodd" clip-rule="evenodd" d="M76.42 53.2865C83.9352 37.0153 90.6234 20.3744 97.7866 3.95365C98.2706 2.83605 97.7602 1.54241 96.6514 1.05841C95.5338 0.574413 94.2404 1.07605 93.7476 2.19365C86.602 18.588 79.9316 35.2024 72.4252 51.4384C71.9148 52.5472 72.3986 53.8497 73.4986 54.3601C74.6073 54.8705 75.9096 54.3865 76.42 53.2865Z" fill="black"/>
<path fill-rule="evenodd" clip-rule="evenodd" d="M11.9331 49.0651C9.53067 34.1051 6.70589 19.1891 4.47069 4.20269C4.28589 3.0059 3.16843 2.17883 1.97163 2.35482C0.766027 2.53082 -0.0610523 3.65709 0.114947 4.85389C2.35895 19.8579 5.18375 34.7915 7.59495 49.7691C7.78855 50.9659 8.91483 51.7844 10.1116 51.5908C11.3172 51.3972 12.1267 50.2707 11.9331 49.0651Z" fill="black"/>
</svg>
