<svg width="59" height="59" viewBox="0 0 59 59" fill="none" xmlns="http://www.w3.org/2000/svg">
<g clip-path="url(#clip0_1_40)">
<path fill-rule="evenodd" clip-rule="evenodd" d="M13.5731 32.7493C13.3496 32.5298 13.1243 32.3104 12.8975 32.0925C10.585 29.8758 8.29044 27.6566 6.13758 25.2794C5.61595 24.7037 4.63656 23.5867 3.65307 23.0119C2.94965 22.6008 2.22163 22.4289 1.55587 22.514C1.13169 22.5681 0.511813 22.7818 0.200635 23.595C0.148227 23.7317 0.086005 23.9667 0.0614383 24.2664C0.0221316 24.7512 0.0606006 25.6209 0.072884 25.7412C0.244851 27.4953 0.416811 29.1724 0.732084 30.9076C1.02197 32.5045 1.22013 34.1136 1.53213 35.708C1.9989 38.0934 2.59998 40.3895 3.47619 42.6611C3.80129 43.5046 4.75038 43.9247 5.59384 43.5996C6.43647 43.2745 6.85738 42.3262 6.53228 41.4828C5.72568 39.3905 5.17621 37.2761 4.74711 35.079C4.43757 33.4994 4.24184 31.9042 3.95441 30.3221C3.7677 29.2928 3.63503 28.2847 3.52202 27.2677L3.70955 27.4781C5.91482 29.9126 8.2626 32.1867 10.6308 34.4567C11.5169 35.3067 12.3726 36.1813 13.2726 37.0174C13.3455 37.1238 13.682 37.6119 13.8474 37.7789C14.1226 38.0573 14.4198 38.2129 14.6786 38.2899C15.3362 38.4864 16.0036 38.4136 16.5866 37.6766C17.0231 37.1246 17.2744 36.2689 17.2556 35.2469C17.2302 33.8425 16.6972 31.991 16.5842 31.1377C15.8685 25.7388 14.7105 20.3612 14.4026 14.9156C14.3519 14.0131 13.578 13.322 12.6756 13.3727C11.7732 13.4243 11.0812 14.1982 11.1328 15.1006C11.4448 20.6281 12.6101 26.0877 13.3364 31.5685C13.3758 31.86 13.4691 32.2751 13.5731 32.7493Z" fill="black"/>
<path fill-rule="evenodd" clip-rule="evenodd" d="M27.8802 10.3662C26.023 10.8584 24.1625 11.2874 22.6705 12.5633C21.1097 13.8989 20.3162 15.8388 20.0337 18.0007C19.6733 20.7587 20.1565 23.8877 20.4562 26.1175C20.6118 27.2722 20.6781 28.8813 21.0147 30.307C21.3046 31.5329 21.7983 32.631 22.5509 33.3999C23.7334 34.6078 25.548 34.7298 27.4094 33.9764C29.5598 33.1059 31.7012 31.0972 32.2834 29.9262C32.6863 29.1171 32.3563 28.1328 31.5464 27.7308C30.7373 27.3279 29.7539 27.6579 29.351 28.4669C28.9817 29.2097 27.5445 30.388 26.1802 30.9408C25.8756 31.0636 25.5742 31.1553 25.2893 31.1783C25.141 31.1905 24.9928 31.2118 24.8921 31.1095C24.3983 30.6042 24.2247 29.7829 24.0814 28.9534C23.8808 27.7971 23.8251 26.5892 23.7031 25.6802C23.4345 23.6863 22.9596 20.8914 23.2814 18.4249C23.4542 17.1024 23.8448 15.87 24.8004 15.0527C25.9092 14.1045 27.3373 13.8989 28.7188 13.5329C29.5925 13.3019 30.1142 12.4044 29.8824 11.5307C29.6515 10.6569 28.754 10.1353 27.8802 10.3662Z" fill="black"/>
<path fill-rule="evenodd" clip-rule="evenodd" d="M27.7557 18.996C26.3169 19.7796 24.779 20.5854 23.237 21.139C22.3862 21.4444 21.9432 22.3829 22.2478 23.2337C22.5532 24.0845 23.4917 24.5275 24.3425 24.2221C26.0409 23.6128 27.7384 22.7358 29.3222 21.8735C30.1157 21.4412 30.4096 20.4454 29.9773 19.6519C29.5449 18.8575 28.55 18.5644 27.7557 18.996Z" fill="black"/>
<path fill-rule="evenodd" clip-rule="evenodd" d="M47.536 19.8679C46.3405 18.4218 45.0769 16.9986 43.7421 15.6982C43.6332 15.5925 42.287 14.4837 41.4869 14.0694C40.9473 13.7901 40.469 13.7394 40.189 13.7664C39.3742 13.845 38.8771 14.2864 38.6732 15.0414C38.4783 15.7653 38.4079 16.5195 38.4079 17.2893C37.1968 15.0185 36.0888 12.683 35.4157 10.2239C35.36 10.0208 35.315 9.92581 35.3076 9.90861C35.0808 9.40745 34.7589 9.23709 34.6443 9.16994C34.0809 8.83911 33.5732 8.89484 33.1449 9.08728C33.0925 9.1102 31.9379 9.62282 32.2138 10.9322C32.2359 11.0379 32.4243 11.7904 32.4792 12.0844C32.5275 12.3399 32.6323 12.57 32.7789 12.7649C33.9073 16.006 35.6335 19.0679 37.2901 22.0576C37.648 22.7037 37.9272 23.3695 38.1115 24.0844C38.1655 24.2932 38.1876 24.7657 38.2351 24.9974C38.3162 25.3897 38.4767 25.6525 38.579 25.7868C39.1113 26.4862 39.7673 26.5574 40.3724 26.3781C40.6312 26.3019 41.1495 26.1275 41.4648 25.3766C42.174 23.6897 42.0937 21.8267 41.8882 19.9498C41.8276 19.3946 41.7523 18.8394 41.7064 18.2907C43.1632 19.7385 44.5266 21.3354 45.8082 22.9314C45.9491 23.1066 47.3756 24.7018 47.7547 24.9393C48.703 25.5355 49.4392 25.0875 49.7545 24.8205C50.2351 24.4127 50.6135 23.7126 50.7674 22.8209C50.9656 21.667 50.8092 20.0792 50.7936 19.4404C50.6896 15.1413 50.534 10.6473 49.5685 6.44963C49.3663 5.5685 48.4868 5.01818 47.6057 5.22045C46.7245 5.42271 46.1743 6.30304 46.3765 7.18335C47.2929 11.1697 47.4198 15.4386 47.5189 19.5199C47.5213 19.6141 47.5279 19.732 47.536 19.8679Z" fill="black"/>
<path fill-rule="evenodd" clip-rule="evenodd" d="M54.0872 5.35936C54.6809 8.22956 55.2754 11.0735 55.6635 14.0248C55.7814 14.9215 56.6044 15.5537 57.5011 15.4358C58.3969 15.3179 59.0291 14.4949 58.9112 13.5982C58.3642 9.43577 57.4176 5.48383 56.6249 1.37792C56.3195 -0.209086 54.8111 0.0128553 54.7185 0.029233C54.5146 0.0652641 53.4034 0.301921 53.3665 1.60313C53.3641 1.68257 53.4173 2.24428 53.4263 2.46211C53.446 2.96081 53.4361 3.44807 53.4107 3.94759C53.3812 4.52327 53.6523 5.0449 54.0872 5.35936Z" fill="black"/>
<path fill-rule="evenodd" clip-rule="evenodd" d="M58.32 22.2854C58.4862 21.7794 58.4018 21.2013 58.0448 20.7533C57.4806 20.0466 56.4496 19.9312 55.7429 20.4954C55.0902 21.0162 54.9682 21.6508 55.0558 22.4271C55.1574 23.3255 55.9697 23.9724 56.8681 23.87C57.6894 23.7775 58.3003 23.0896 58.32 22.2854Z" fill="black"/>
<path fill-rule="evenodd" clip-rule="evenodd" d="M27.3999 53.8789C27.2329 53.5251 27.0986 53.2459 27.0667 53.1861C25.5452 50.3404 23.8942 47.5325 22.0968 44.8522C21.5932 44.1013 20.5753 43.9007 19.8244 44.4043C19.0735 44.9079 18.8729 45.9258 19.3765 46.6768C21.1133 49.2661 22.7077 51.9807 24.1784 54.7305C24.2906 54.9402 25.0383 56.8031 25.5722 57.5803C26.0561 58.2837 26.6637 58.5351 27.0118 58.5867C27.5645 58.6686 28.4293 58.4704 29.1311 57.5336C30.0474 56.311 31.2356 53.0444 31.4313 52.5023C31.79 51.5049 32.0938 50.4584 32.3755 49.4405C32.9094 47.5096 33.2165 45.5442 33.4908 43.5641C33.6153 42.6683 32.9889 41.8412 32.093 41.7167C31.1979 41.5931 30.37 42.2196 30.2464 43.1146C29.9917 44.9514 29.7141 46.7758 29.2187 48.5667C28.9583 49.506 28.6798 50.4731 28.349 51.3936C28.2491 51.6695 27.861 52.8094 27.3999 53.8789Z" fill="black"/>
</g>
<defs>
<clipPath id="clip0_1_40">
<rect width="58.96" height="58.96" fill="white"/>
</clipPath>
</defs>
</svg>
