<svg width="61" height="77" viewBox="0 0 61 77" fill="none" xmlns="http://www.w3.org/2000/svg">
<path fill-rule="evenodd" clip-rule="evenodd" d="M26.7932 16.9401C18.114 19.1582 12.436 24.8142 6.88038 31.7847C5.94255 32.9619 3.76037 35.9153 2.76548 38.6532C2.06145 40.5891 1.9755 42.4209 3.15701 43.5304C4.18882 44.5008 5.64502 44.5199 7.22878 43.9648C10.668 42.7601 14.7442 38.8456 15.8841 37.551C21.0166 31.7178 24.9064 24.776 27.3088 17.4676C27.8441 17.3381 28.3924 17.2211 28.953 17.1176C30.6423 16.8083 32.6866 16.6068 34.5905 16.8671C36.4409 17.1196 38.1616 17.808 39.2595 19.2914C41.5512 22.3861 41.0811 27.2721 39.4136 32.3986C39.0511 33.5162 38.63 34.6435 38.1659 35.7686C37.3642 35.9771 36.5302 36.2789 35.6757 36.6586C29.0454 39.6037 21.1659 47.1156 19.1275 49.67C18.2198 50.8071 16.5205 52.8778 15.8784 54.8783C15.4189 56.3088 15.4912 57.7035 16.6344 58.7529C17.6522 59.6884 19.056 59.679 20.5765 59.0999C23.8597 57.8491 27.7184 53.9193 28.8891 52.5702C31.5522 49.5039 35.8379 42.9986 38.6535 36.2927C40.2757 35.9129 41.7259 35.972 42.8572 36.6949C44.4312 37.6999 44.852 39.7801 44.6664 42.2775C44.6101 43.0307 44.4984 43.8212 44.3401 44.6315C44.2801 44.6701 44.222 44.7085 44.162 44.7471C39.3734 47.8744 34.7352 53.0209 32.8991 55.4614C32.0701 56.5622 30.7117 58.6571 30.2942 60.6006C29.9973 61.9875 30.1778 63.2969 31.2507 64.1797C32.3525 65.0865 33.6672 64.7834 34.9108 63.9397C36.6063 62.7874 38.169 60.6352 38.7438 59.8319C40.3644 57.5711 43.7325 50.8099 44.9287 45.0178C46.3502 44.1249 47.7791 43.4249 49.1431 43.0543C50.5823 42.661 51.9475 42.6347 53.1432 43.1577C56.0914 44.4504 56.5713 47.7978 55.9265 51.5808C55.7302 52.7328 55.4276 53.925 55.0498 55.1166C53.762 55.1704 52.3509 55.612 50.9273 56.3197C47.5734 57.9885 44.1349 61.1202 42.1138 63.8639C41.4161 64.8102 40.302 66.5111 40.0031 68.088C39.7863 69.228 39.9884 70.3038 40.9673 71.047C42.1561 71.951 43.5262 71.7903 44.8483 71.1233C46.6864 70.1943 48.4314 68.2731 49.3628 67.2673C51.1905 65.2915 53.9294 60.565 55.5309 55.7437C56.0573 55.7668 56.555 55.8712 57.0169 56.0709C58.7566 56.8199 59.916 58.8958 60.0951 62.8904C60.1809 64.8245 60.0582 66.7624 59.559 68.6382C58.8408 71.3422 57.601 73.7422 56.1372 76.1263C56.0455 76.277 56.0958 76.4719 56.2517 76.5611C56.4066 76.6513 56.6087 76.6022 56.7003 76.4515C58.1962 74.0156 59.4592 71.5599 60.1931 68.7972C60.7077 66.861 60.8374 64.8605 60.7493 62.8645C60.5542 58.5168 59.1751 56.3069 57.2823 55.491C56.7984 55.2831 56.2782 55.1651 55.73 55.1256C56.0919 53.9659 56.3815 52.8078 56.5719 51.6859C57.2726 47.576 56.6139 43.9838 53.4116 42.5804C51.046 41.5441 48.0653 42.4074 45.0886 44.1706C45.1956 43.5377 45.2751 42.9204 45.3192 42.3254C45.5253 39.5568 44.9612 37.2794 43.2177 36.1656C42.0561 35.4243 40.5856 35.2866 38.9407 35.5943C39.3451 34.5915 39.715 33.5867 40.0382 32.5899C41.776 27.245 42.1807 22.1499 39.7909 18.9221C38.8235 17.6152 37.4247 16.8572 35.859 16.464C33.577 15.8936 30.9378 16.1085 28.8297 16.4955C28.3916 16.5755 27.9598 16.6641 27.5361 16.7611C27.7931 15.9427 28.0331 15.1201 28.2523 14.2937C28.7962 12.2501 29.3631 9.77218 29.2654 7.43156C29.1977 5.83237 28.8215 4.29734 27.9343 2.99524C26.6658 1.12876 24.7721 0.460394 22.7405 0.442467C20.7747 0.424166 18.6783 1.0225 16.929 1.69857C9.27218 4.65755 2.87349 10.3209 0.246604 18.0515C0.190488 18.2166 0.284046 18.3958 0.455691 18.4515C0.626342 18.5063 0.812136 18.417 0.868107 18.2501C3.43366 10.7004 9.69438 5.17755 17.1731 2.2875C18.8476 1.63944 20.8536 1.0595 22.7366 1.07583C24.5518 1.09267 26.2536 1.67362 27.388 3.3423C28.4179 4.85596 28.6903 6.71156 28.6075 8.59255C28.5227 10.5186 28.0616 12.4726 27.6183 14.1347C27.3675 15.0749 27.0923 16.0116 26.7932 16.9401ZM54.8405 55.7579C53.7061 55.849 52.4739 56.2638 51.2277 56.8838C47.9612 58.5083 44.6156 61.5603 42.6471 64.2327C41.9904 65.1247 40.9271 66.7194 40.6465 68.2032C40.476 69.1033 40.5983 69.9629 41.3703 70.5496C42.3433 71.2879 43.4628 71.1062 44.5451 70.5604C46.3119 69.6672 47.9795 67.8102 48.8751 66.843C50.6388 64.9357 53.265 60.4091 54.8405 55.7579ZM44.1504 45.524C39.5658 48.6254 35.1898 53.4945 33.4273 55.836C32.6377 56.8844 31.3322 58.8783 30.9352 60.7321C30.6891 61.8761 30.7868 62.9686 31.6735 63.6971C32.5374 64.4083 33.5588 64.0819 34.5332 63.42C36.1619 62.314 37.6539 60.2398 38.2064 59.4697C39.7411 57.3276 42.8775 51.071 44.1504 45.524ZM37.8517 36.5112C37.2359 36.7006 36.5997 36.9463 35.9503 37.2344C29.4166 40.1364 21.6538 47.5418 19.6456 50.0579C18.7708 51.154 17.1231 53.1408 16.5039 55.0686C16.1211 56.256 16.1348 57.4221 17.0843 58.2943C17.6283 58.7936 18.3138 58.9354 19.071 58.8416C19.8927 58.7413 20.7916 58.37 21.701 57.8558C24.519 56.2627 27.4113 53.2864 28.3877 52.1613C30.9618 49.1978 35.068 42.9836 37.8517 36.5112ZM26.557 17.6607C18.2519 19.9123 12.774 25.4276 7.39854 32.1726C6.4852 33.3201 4.35338 36.1969 3.38246 38.8648C3.06959 39.7269 2.87635 40.5648 2.89758 41.3123C2.91811 42.0059 3.12318 42.6175 3.61183 43.0759C4.17093 43.6011 4.88575 43.7604 5.68038 43.681C6.53845 43.5942 7.48291 43.2357 8.43867 42.7316C11.394 41.1723 14.4357 38.2183 15.3853 37.1392C20.3709 31.4724 24.1716 24.7467 26.557 17.6607Z" fill="black"/>
</svg>
